:version 1.10
:name ASF
:units
  mass 1
  length 1
  angle deg
:documentation
  ASF file generated by Kaydara
:root
  axis xyz
  order  tx ty tz rx ry rz
  position 0 0 0
  orientation 0 0 0
:bonedata
  begin
    id 1
    name RightUpLegDummy
    direction -1 2.30186e-007 8.31532e-007
    length 4.04083
    axis 0 0 0 xyz
  end
  begin
    id 2
    name RightUpLeg
    direction -0.000919234 -0.999985 0.00544864
    length 17.4221
    axis -3.80308 -0.00076134 -0.0523649 xyz
    dof rx ry rz
  end
  begin
    id 3
    name RightLeg
    direction -0.000919271 -0.999984 -0.00555045
    length 17.1239
    axis 4.00314 0.0181274 -0.183583 xyz
    dof rx ry rz
  end
  begin
    id 4
    name RightFoot
    direction -2.57843e-005 -4.04509e-007 1
    length 6.72091
    axis 8.18909e-005 -0.122003 -0.403008 xyz
    dof rx ry rz
  end
  begin
    id 5
    name RightToes
    direction 0.00116825 -0.014069 0.9999
    length 3.85082
    axis 0.000514414 0.540638 -0.356797 xyz
    dof rx ry rz
  end
  begin
    id 6
    name SpineDummy
    direction 0.0168869 0.966876 -0.254689
    length 6.99894
    axis 0 0 0 xyz
  end
  begin
    id 7
    name Spine
    direction -0.0132008 0.999903 0.00446247
    length 11.1999
    axis -0.00148109 0.00725429 0.756411 xyz
    dof rx ry rz
  end
  begin
    id 8
    name Spine1
    direction 0 0 0
    length 0
    axis -0.000934958 0.0245693 1.46543 xyz
    dof rx ry rz
  end
  begin
    id 9
    name HEadDummy
    direction -0.0255732 0.999672 0.00128215
    length 3.43865
    axis -0.000934958 0.0245693 1.46543 xyz
  end
  begin
    id 10
    name HEad
    direction -0.0472656 0.980052 0.19304
    length 5.12695
    axis -0.000934954 0.0245693 1.46543 xyz
    dof rx ry rz
  end
  begin
    id 11
    name LeftShoulder1Dummy
    direction 0.953098 0.301717 -0.023914
    length 3.68488
    axis -0.000934958 0.0245693 1.46543 xyz
  end
  begin
    id 12
    name LeftShoulder1
    direction 0.962466 0.271167 0.0112566
    length 3.13809
    axis -0.000934958 0.0245693 1.46543 xyz
    dof rx ry rz
  end
  begin
    id 13
    name LeftArm
    direction 0.999943 0.00455037 -0.00961766
    length 11.3419
    axis -23.1648 0.685459 1.22814 xyz
    dof rx ry rz
  end
  begin
    id 14
    name LeftForeArm
    direction 0.999332 0.0131969 0.0340885
    length 8.70632
    axis -9.90633 0.618216 0.0826942 xyz
    dof rx ry rz
  end
  begin
    id 15
    name LeftHand
    direction 0.994373 -0.0366703 0.0993905
    length 5.32135
    axis 0.00675269 0.680415 0.445699 xyz
    dof rx ry rz
  end
  begin
    id 16
    name RightShoulderDummy
    direction -0.967298 0.252589 -0.0230903
    length 3.68488
    axis -0.000934958 0.0245693 1.46543 xyz
  end
  begin
    id 17
    name RightShoulder
    direction -0.975062 0.221602 0.0120823
    length 3.13809
    axis 0.216257 0.0246515 1.45863 xyz
    dof rx ry rz
  end
  begin
    id 18
    name RightArm
    direction -0.99886 -0.00851186 -0.0469687
    length 10.3947
    axis -23.196 0.23503 -0.532632 xyz
    dof rx ry rz
  end
  begin
    id 19
    name RightForeArm
    direction -0.99909 0.00114866 0.0426317
    length 8.68355
    axis -9.91764 -0.134943 0.610517 xyz
    dof rx ry rz
  end
  begin
    id 20
    name RightHand
    direction -0.992888 -0.0489538 0.10852
    length 5.28593
    axis -0.00275396 -0.197403 0.246414 xyz
    dof rx ry rz
  end
  begin
    id 21
    name LeftUpLegDummy
    direction 1 -2.30186e-007 -8.31532e-007
    length 4.04083
    axis 0 0 0 xyz
  end
  begin
    id 22
    name LeftUpLeg
    direction -0.000920097 -1 2.79241e-006
    length 17.4221
    axis -3.48782 0.00143434 -0.0532288 xyz
    dof rx ry rz
  end
  begin
    id 23
    name LeftLeg
    direction -0.000920097 -1 2.7912e-006
    length 17.1239
    axis 3.68162 -0.00806512 -0.0529896 xyz
    dof rx ry rz
  end
  begin
    id 24
    name LeftFoot
    direction -2.57845e-005 -3.987e-007 1
    length 6.72091
    axis 3.02372e-005 -0.00147829 -0.214229 xyz
    dof rx ry rz
  end
  begin
    id 25
    name LeftToes
    direction 0.00813577 -0.00488255 0.999955
    length 3.85048
    axis 3.89895e-005 -0.0014783 -0.214229 xyz
    dof rx ry rz
  end
:hierarchy
  begin
    root RightUpLegDummy SpineDummy LeftUpLegDummy
    RightUpLegDummy RightUpLeg
    RightUpLeg RightLeg
    RightLeg RightFoot
    RightFoot RightToes
    SpineDummy Spine
    Spine Spine1
    Spine1 HEadDummy LeftShoulder1Dummy RightShoulderDummy
    HEadDummy HEad
    LeftShoulder1Dummy LeftShoulder1
    LeftShoulder1 LeftArm
    LeftArm LeftForeArm
    LeftForeArm LeftHand
    RightShoulderDummy RightShoulder
    RightShoulder RightArm
    RightArm RightForeArm
    RightForeArm RightHand
    LeftUpLegDummy LeftUpLeg
    LeftUpLeg LeftLeg
    LeftLeg LeftFoot
    LeftFoot LeftToes
  end

:SAMPLES-PER-SECOND 30
:FULLY-SPECIFIED
:DEGREES
19
root  -15.483 34.6544 -8.61418 -169.736 -2.42622 179.28
RightUpLeg  -9.22128 -9.98234 1.40882
RightLeg  5.88815 -1.18409 -0.0566552
RightFoot  2.51164 0.012523 0.0901139
RightToes  -19.301 -0.0802726 -0.175105
Spine  -2.66347 0.0513728 -0.0164788
Spine1  -5.4145 0.234051 0.581497
HEad  -66.7923 -0.654648 6.20547
LeftShoulder1  -1.94126e-019 -3.10601e-018 -2.51263e-017
LeftArm  -7.16033 24.5583 -84.2053
LeftForeArm  34.9322 -16.3355 -2.6794
LeftHand  -0.517196 -3.14027 7.12684
RightShoulder  -4.96962e-017 0 -2.36833e-017
RightArm  -19.379 -22.9533 78.712
RightForeArm  58.9065 14.4788 1.14321
RightHand  -0.476103 0.417728 -9.5604
LeftUpLeg  -8.90553 -6.98401 -1.39877
LeftLeg  5.26798 10.6134 0.291255
LeftFoot  3.21256 -0.0213318 0.752768
LeftToes  -16.1357 1.31424e-006 1.14295e-007
20
root  -15.4827 34.6541 -8.61964 -169.729 -2.43666 179.279
RightUpLeg  -9.22024 -9.98261 1.41112
RightLeg  5.89116 -1.1899 -0.0569392
RightFoot  2.48262 0.012523 0.0901139
RightToes  -19.2689 -0.0802726 -0.175105
Spine  -2.66402 0.0560298 -0.0208738
Spine1  -5.41424 0.242923 0.572639
HEad  -66.7798 -0.667011 6.19343
LeftShoulder1  -1.94126e-019 -3.10601e-018 -2.51263e-017
LeftArm  -7.1776 24.5563 -84.2065
LeftForeArm  34.9234 -16.3194 -2.67639
LeftHand  -0.516645 -3.12672 7.14662
RightShoulder  -4.96962e-017 0 -2.36833e-017
RightArm  -19.3902 -22.9593 78.7167
RightForeArm  58.888 14.4757 1.14399
RightHand  -0.475408 0.426898 -9.5872
LeftUpLeg  -8.89279 -7.03185 -1.40072
LeftLeg  5.26984 10.688 0.293859
LeftFoot  3.24743 -0.0220341 0.763684
LeftToes  -15.8304 1.31424e-006 1.14295e-007
21
root  -15.4821 34.6537 -8.62004 -169.727 -2.44519 179.278
RightUpLeg  -9.22219 -9.9814 1.41383
RightLeg  5.89189 -1.18763 -0.057861
RightFoot  2.49522 0.012523 0.0901139
RightToes  -19.3325 -0.0802726 -0.175105
Spine  -2.66225 0.059053 -0.0243651
Spine1  -5.41401 0.242331 0.568644
HEad  -66.7863 -0.681998 6.18677
LeftShoulder1  -1.94126e-019 -3.10601e-018 -2.51263e-017
LeftArm  -7.17227 24.5524 -84.2023
LeftForeArm  34.9267 -16.2953 -2.67313
LeftHand  -0.516159 -3.13368 7.17758
RightShoulder  -4.96962e-017 0 -2.36833e-017
RightArm  -19.399 -22.9641 78.7241
RightForeArm  58.9016 14.4714 1.14508
RightHand  -0.474768 0.427005 -9.60998
LeftUpLeg  -8.91029 -6.99617 -1.40081
LeftLeg  5.27483 10.6074 0.292579
LeftFoot  3.19597 -0.0211069 0.749273
LeftToes  -16.1655 1.31424e-006 1.14295e-007
22
root  -15.4787 34.6533 -8.62428 -169.723 -2.4558 179.277
RightUpLeg  -9.22508 -9.97987 1.41664
RightLeg  5.90497 -1.21688 -0.0540532
RightFoot  2.46838 0.012523 0.0901139
RightToes  -19.2729 -0.0802726 -0.175105
Spine  -2.65538 0.0612756 -0.0273174
Spine1  -5.40044 0.248715 0.559482
HEad  -66.8149 -0.685861 6.17475
LeftShoulder1  -1.94126e-019 -3.10601e-018 -2.51263e-017
LeftArm  -7.18258 24.5504 -84.1899
LeftForeArm  34.9326 -16.2242 -2.66291
LeftHand  -0.515171 -3.15193 7.24236
RightShoulder  -4.96962e-017 0 -2.36833e-017
RightArm  -19.3946 -22.9658 78.7451
RightForeArm  58.9288 14.4672 1.1461
RightHand  -0.474225 0.465001 -9.63761
LeftUpLeg  -8.90909 -7.06197 -1.39471
LeftLeg  5.28491 10.6741 0.296272
LeftFoot  3.20132 -0.021422 0.75417
LeftToes  -16.1049 1.31424e-006 1.14295e-007
23
root  -15.4762 34.6527 -8.626 -169.717 -2.46019 179.277
RightUpLeg  -9.22919 -9.97915 1.41908
RightLeg  5.91597 -1.21429 -0.0542681
RightFoot  2.43591 0.012523 0.0901139
RightToes  -19.1685 -0.0802726 -0.175105
Spine  -2.6505 0.0627949 -0.0295566
Spine1  -5.39079 0.255867 0.554674
HEad  -66.8591 -0.675208 6.14288
LeftShoulder1  -1.94126e-019 -3.10601e-018 -2.51263e-017
LeftArm  -7.18023 24.557 -84.1871
LeftForeArm  34.913 -16.2223 -2.66232
LeftHand  -0.514851 -3.13413 7.25242
RightShoulder  -4.96962e-017 0 -2.36833e-017
RightArm  -19.3931 -22.9652 78.7563
RightForeArm  58.9399 14.4682 1.14586
RightHand  -0.473784 0.471538 -9.65467
LeftUpLeg  -8.91772 -7.06337 -1.39167
LeftLeg  5.29554 10.6711 0.298157
LeftFoot  3.19675 -0.021556 0.756252
LeftToes  -16.1691 1.31424e-006 1.14295e-007
24
root  -15.4748 34.6521 -8.62685 -169.712 -2.46303 179.276
RightUpLeg  -9.2365 -9.97966 1.42067
RightLeg  5.92072 -1.20851 -0.054641
RightFoot  2.46669 0.012523 0.0901139
RightToes  -19.3262 -0.0802726 -0.175105
Spine  -2.64356 0.0639185 -0.03292
Spine1  -5.37702 0.258349 0.555446
HEad  -66.8835 -0.640998 6.14629
LeftShoulder1  -1.94126e-019 -3.10601e-018 -2.51263e-017
LeftArm  -7.15642 24.5702 -84.1859
LeftForeArm  34.8879 -16.2243 -2.66304
LeftHand  -0.515052 -3.16135 7.26905
RightShoulder  -4.96962e-017 0 -2.36833e-017
RightArm  -19.3972 -22.9648 78.7668
RightForeArm  58.9379 14.481 1.14268
RightHand  -0.475591 0.462017 -9.58839
LeftUpLeg  -8.92851 -7.06487 -1.39019
LeftLeg  5.30683 10.6715 0.298962
LeftFoot  3.19044 -0.0216674 0.757985
LeftToes  -16.1671 1.31424e-006 1.14295e-007
25
root  -15.4694 34.6514 -8.62811 -169.704 -2.46452 179.275
RightUpLeg  -9.24196 -9.98129 1.42988
RightLeg  5.92298 -1.22476 -0.051775
RightFoot  2.43543 0.012523 0.0901139
RightToes  -19.1982 -0.0802726 -0.175105
Spine  -2.63198 0.0648944 -0.0365851
Spine1  -5.35389 0.261384 0.542476
HEad  -66.9051 -0.650732 6.18911
LeftShoulder1  -1.94126e-019 -3.10601e-018 -2.51263e-017
LeftArm  -7.14595 24.5798 -84.1663
LeftForeArm  34.9022 -16.2307 -2.66322
LeftHand  -0.51459 -3.12162 7.27753
RightShoulder  -4.96962e-017 0 -2.36833e-017
RightArm  -19.415 -22.9683 78.8088
RightForeArm  58.9341 14.4708 1.14522
RightHand  -0.475711 0.425238 -9.57601
LeftUpLeg  -8.94189 -7.04501 -1.38466
LeftLeg  5.3157 10.6502 0.302244
LeftFoot  3.18885 -0.0217575 0.759385
LeftToes  -16.273 1.31424e-006 1.14295e-007
